<svg width="65.806mm" height="66.182mm" version="1.1" viewBox="0 0 65.806 66.182" xmlns="http://www.w3.org/2000/svg" xmlns:xlink="http://www.w3.org/1999/xlink"><defs><linearGradient id="a" x1="112.6" x2="178.41" y1="210.85" y2="210.85" gradientTransform="translate(-62.452 -93.034)" gradientUnits="userSpaceOnUse"><stop stop-color="#d82e0b" stop-opacity=".2197" offset="0"/></linearGradient></defs><g transform="translate(-50.149 -84.722)"><path d="m83.75 84.722a32.204 32.204 0 0 0-32.205 32.204 32.204 32.204 0 0 0 7.9029 21.098l-9.2997 12.88 19.359-5.1051a32.204 32.204 0 0 0 14.243 3.3316 32.204 32.204 0 0 0 32.204-32.204 32.204 32.204 0 0 0-32.204-32.204zm-0.024805 10.2a21.667 21.667 0 0 1 21.667 21.667 21.667 21.667 0 0 1-21.667 21.667 21.667 21.667 0 0 1-21.667-21.667 21.667 21.667 0 0 1 21.667-21.667zm-7.7628 9.9028a4.1282 4.3974 0 0 0-4.1284 4.3977 4.1282 4.3974 0 0 0 4.1284 4.3972 4.1282 4.3974 0 0 0 4.1279-4.3972 4.1282 4.3974 0 0 0-4.1279-4.3977zm15.324 0.05323a4.1282 4.3974 0 0 0-4.1279 4.3971 4.1282 4.3974 0 0 0 4.1279 4.3972 4.1282 4.3974 0 0 0 4.1284-4.3972 4.1282 4.3974 0 0 0-4.1284-4.3971zm-19.032 14.993a11.435 11.435 0 0 0 11.435 11.373 11.435 11.435 0 0 0 11.435-11.373h-22.871z" fill="url(#a)"/></g></svg>
