<svg width="65.806mm" height="66.182mm" version="1.1" viewBox="0 0 65.806 66.182" xmlns="http://www.w3.org/2000/svg" xmlns:xlink="http://www.w3.org/1999/xlink"><defs><linearGradient id="f" x1="32.927" x2="97.336" y1="100.32" y2="100.32" gradientTransform="translate(18.618 16.606)" gradientUnits="userSpaceOnUse" xlink:href="#a"/><linearGradient id="a"><stop stop-color="#d82e0b" offset="0"/></linearGradient><linearGradient id="e" x1="8.0887" x2="33.626" y1="128.41" y2="128.41" gradientTransform="matrix(.92428 -.19464 .21802 1.0353 12.958 11.373)" gradientUnits="userSpaceOnUse" xlink:href="#a"/><linearGradient id="d" x1="73.955" x2="84.536" y1="204.54" y2="204.54" gradientTransform="matrix(.78026 0 0 .78026 14.13 -50.371)" gradientUnits="userSpaceOnUse" xlink:href="#a"/><linearGradient id="c" x1="73.955" x2="84.536" y1="204.54" y2="204.54" gradientTransform="matrix(.78026 0 0 .78026 29.454 -50.318)" gradientUnits="userSpaceOnUse" xlink:href="#a"/><linearGradient id="b" x1="134.71" x2="157.58" y1="215.42" y2="215.42" gradientTransform="matrix(1 0 0 -1 -62.452 340.97)" gradientUnits="userSpaceOnUse" xlink:href="#a"/></defs><g transform="translate(-50.149 -84.722)"><g><path d="m83.75 84.722a32.204 32.204 0 0 0-32.205 32.204 32.204 32.204 0 0 0 32.205 32.204 32.204 32.204 0 0 0 32.204-32.204 32.204 32.204 0 0 0-32.204-32.204zm-0.0248 10.2a21.667 21.667 0 0 1 21.667 21.667 21.667 21.667 0 0 1-21.667 21.667 21.667 21.667 0 0 1-21.667-21.667 21.667 21.667 0 0 1 21.667-21.667z" fill="url(#f)"/><path d="m64.222 131.41-14.074 19.492 23.58-6.2181z" fill="url(#e)"/><ellipse cx="75.962" cy="109.22" rx="4.1282" ry="4.3974" fill="url(#d)"/><ellipse cx="91.286" cy="109.28" rx="4.1282" ry="4.3974" fill="url(#c)"/><path d="m95.125 131.24a11.435 11.435 0 0 0-11.435-11.373 11.435 11.435 0 0 0-11.435 11.373" fill="url(#b)"/></g></g></svg>
