<svg width="65.806mm" height="66.182mm" version="1.1" viewBox="0 0 65.806 66.182" xmlns="http://www.w3.org/2000/svg" xmlns:xlink="http://www.w3.org/1999/xlink"><defs><linearGradient id="f" x1="32.927" x2="97.336" y1="100.32" y2="100.32" gradientTransform="translate(81.07 109.64)" gradientUnits="userSpaceOnUse" xlink:href="#a"/><linearGradient id="a"><stop stop-color="#d82e0b" offset="0"/></linearGradient><linearGradient id="e" x1="8.0887" x2="33.626" y1="128.41" y2="128.41" gradientTransform="matrix(.92428 -.19464 .21802 1.0353 75.41 104.41)" gradientUnits="userSpaceOnUse" xlink:href="#a"/><linearGradient id="d" x1="73.955" x2="84.536" y1="204.54" y2="204.54" gradientTransform="matrix(.78026 0 0 .78026 76.582 42.664)" gradientUnits="userSpaceOnUse" xlink:href="#a"/><linearGradient id="c" x1="73.955" x2="84.536" y1="204.54" y2="204.54" gradientTransform="matrix(.78026 0 0 .78026 91.906 42.716)" gradientUnits="userSpaceOnUse" xlink:href="#a"/><linearGradient id="b" x1="134.71" x2="157.58" y1="215.42" y2="215.42" gradientTransform="translate(0 3.175)" gradientUnits="userSpaceOnUse" xlink:href="#a"/></defs><g transform="translate(-50.149 -84.722)"><g transform="translate(-62.452 -93.034)"><path d="m146.2 177.76a32.204 32.204 0 0 0-32.205 32.204 32.204 32.204 0 0 0 32.205 32.204 32.204 32.204 0 0 0 32.204-32.204 32.204 32.204 0 0 0-32.204-32.204zm-0.0248 10.2a21.667 21.667 0 0 1 21.667 21.667 21.667 21.667 0 0 1-21.667 21.667 21.667 21.667 0 0 1-21.667-21.667 21.667 21.667 0 0 1 21.667-21.667z" fill="url(#f)"/><path d="m126.67 224.45-14.074 19.492 23.58-6.2181z" fill="url(#e)"/><ellipse cx="138.41" cy="202.26" rx="4.1282" ry="4.3974" fill="url(#d)"/><ellipse cx="153.74" cy="202.31" rx="4.1282" ry="4.3974" fill="url(#c)"/><path d="m157.58 212.91a11.435 11.435 0 0 1-11.435 11.373 11.435 11.435 0 0 1-11.435-11.373" fill="url(#b)"/></g></g></svg>
