<svg width="65.806mm" height="66.182mm" version="1.1" viewBox="0 0 65.806 66.182" xmlns="http://www.w3.org/2000/svg" xmlns:xlink="http://www.w3.org/1999/xlink"><defs><linearGradient id="a" x1="32.927" x2="97.336" y1="100.32" y2="100.32" gradientTransform="translate(-19.333 -33.741)" gradientUnits="userSpaceOnUse"><stop offset="0"/></linearGradient></defs><g transform="translate(-12.197 -34.376)"><path d="m45.799 34.376a32.204 32.204 0 0 0-32.205 32.204 32.204 32.204 0 0 0 7.9029 21.098l-9.2997 12.88 19.359-5.1051a32.204 32.204 0 0 0 14.243 3.3316 32.204 32.204 0 0 0 32.204-32.204 32.204 32.204 0 0 0-32.204-32.204zm-0.024805 10.2a21.667 21.667 0 0 1 21.667 21.667 21.667 21.667 0 0 1-21.667 21.667 21.667 21.667 0 0 1-21.667-21.667 21.667 21.667 0 0 1 21.667-21.667z" fill="url(#a)"/></g></svg>
