<svg width="187.3mm" height="29.119mm" version="1.1" viewBox="0 0 187.3 29.119" xmlns="http://www.w3.org/2000/svg" xmlns:xlink="http://www.w3.org/1999/xlink"><defs><linearGradient id="b"><stop stop-color="#d82e0b" offset="0"/></linearGradient><linearGradient id="a" x1="37.074" x2="183.41" y1="81.916" y2="81.916" gradientTransform="matrix(1.28 0 0 1.28 -34.522 -49.815)" gradientUnits="userSpaceOnUse" xlink:href="#b"/></defs><g transform="translate(-12.931 -40.474)"><g fill="url(#a)" stroke-width=".518"><path d="m16.985 40.474h14.506q4.5865 0 4.5865 4.0532v24.852q0 0.21333-0.21333 0.21333h-7.1464q-0.21333 0-0.21333-0.21333v-21.333h-7.9997v21.333q0 0.21333-0.21333 0.21333h-7.1464q-0.21333 0-0.21333-0.21333v-25.066q0-3.4132 4.0532-3.8399z" style="white-space:pre"/><path d="m44.024 40.474h16.319q3.2799 0 4.1599 2.5599 0.21333 0.74664 0.21333 1.28v7.3598q0 0.21333-0.21333 0.21333h-7.0398q-0.21333 0-0.21333-0.21333v-3.6265h-9.7063v14.08h9.7063v-3.7332q0.02666-0.21333 0.21333-0.21333h7.0398q0.21333 0.02666 0.21333 0.21333v7.2531q0 2.5866-2.2399 3.6265-0.69331 0.31999-1.7066 0.31999h-16.853q-2.6399 0-3.7332-2.4532-0.21333-1.0133-0.21333-1.5999v-21.226q0-3.4132 4.0532-3.8399z" style="white-space:pre"/><path d="m86.156 40.474h14.506q4.5865 0 4.5865 4.0532v24.852q0 0.21333-0.21333 0.21333h-7.1464q-0.21333 0-0.21333-0.21333v-21.333h-7.9997v21.333q0 0.21333-0.21333 0.21333h-7.1464q-0.21333 0-0.21333-0.21333v-25.066q0-3.4132 4.0532-3.8399z" style="white-space:pre"/><path d="m112.98 40.474h15.999q4.5865 0 4.5865 4.0532v10.88q0 3.4132-3.5199 4.0532h-13.44v2.6666h16.746q0.21332 0.02666 0.21332 0.21333v7.0398q0 0.21333-0.21332 0.21333h-20.266q-2.6399 0-3.7332-2.4532-0.21331-1.0133-0.21331-1.5999v-21.119q0-2.7199 2.5599-3.7332 0.74663-0.21333 1.28-0.21333zm3.6265 7.5731v3.8399h9.3864v-3.8399z" style="white-space:pre"/><path d="m168.13 69.593h-9.5997q-2.4266 0-3.4132-1.0666-1.0666 1.0666-3.3066 1.0666h-9.7063q-3.2799 0-4.1599-2.5599-0.21331-0.74664-0.21331-1.28v-25.066q0-0.21333 0.21331-0.21333h7.0398q0.21333 0 0.21333 0.21333v21.333h5.8131v-21.333q0-0.21333 0.21331-0.21333h7.1464q0.21333 0 0.21333 0.21333v21.333h6.0264v-21.333q0-0.21333 0.21333-0.21333h7.1464q0.21332 0 0.21332 0.21333v25.066q0 3.4399-4.0532 3.8399z" style="white-space:pre"/><path d="m179.86 40.474h20.159q0.21331 0.02666 0.21331 0.21333v7.0398q0 0.21333-0.21331 0.21333h-16.639v3.9465h13.226q2.6932 0 3.6265 2.8799v11.2q0 2.5332-2.8799 3.5199-0.55998 0.10666-1.0666 0.10666h-20.159q-0.21333 0-0.21333-0.21333v-7.1464q0.0266-0.21333 0.21333-0.21333h16.746v-2.5599h-12.693q-3.1999 0-4.1598-2.5599 0-0.37332-0.10662-5.1198v-7.6797q0-2.3999 2.5599-3.4132 0.47998-0.21333 1.3866-0.21333z" style="white-space:pre"/></g></g></svg>
