<svg width="64.409mm" height="72.973mm" version="1.1" viewBox="0 0 64.409 72.973" xmlns="http://www.w3.org/2000/svg" xmlns:xlink="http://www.w3.org/1999/xlink"><defs><linearGradient id="b"><stop stop-color="#8a8a8a" offset="0"/></linearGradient><linearGradient id="a" x2="68.61" y1="43.763" y2="43.763" gradientUnits="userSpaceOnUse" xlink:href="#b"/></defs><g transform="translate(-2.1005)" fill="url(#a)"><g transform="translate(.7065 -.004)"><path d="m33.599 4e-3a32.204 32.204 0 0 0-32.205 32.204 32.204 32.204 0 0 0 32.205 32.204 32.204 32.204 0 0 0 32.204-32.204 32.204 32.204 0 0 0-32.204-32.204zm-0.0248 10.2a21.667 21.667 0 0 1 21.667 21.667 21.667 21.667 0 0 1-21.667 21.667 21.667 21.667 0 0 1-21.667-21.667 21.667 21.667 0 0 1 21.667-21.667z"/><ellipse cx="25.809" cy="24.504" rx="4.1282" ry="4.3974"/><ellipse cx="41.139" cy="24.554" rx="4.1282" ry="4.3974"/><path d="m44.979 35.154a11.435 11.435 0 0 1-11.435 11.373 11.435 11.435 0 0 1-11.435-11.373"/></g><path d="m34.305 53.408a34.305 34.305 0 0 0-30.971 19.565h61.942a34.305 34.305 0 0 0-30.971-19.565z" stroke-width="3"/></g></svg>
